<svg width="24" height="24" viewBox="0 0 16 17" fill="none" xmlns="http://www.w3.org/2000/svg">
<g clip-path="url(#clip0_1458_23824)">
<path d="M15.1704 11.516L13.2216 14.2712C13.1496 14.364 13.0568 14.4248 12.9432 14.444C12.8344 14.4616 12.7256 14.436 12.6328 14.372L10.1064 12.5816V15.6776C10.1064 15.9112 9.9224 16.0984 9.6872 16.0984H6.3112C6.076 16.0984 5.8872 15.908 5.8872 15.6776V12.5816L3.3656 14.372C3.1752 14.5064 2.908 14.4616 2.7768 14.2712L0.827997 11.516C0.690397 11.3272 0.735197 11.0616 0.925597 10.9272L4.3448 8.49844L0.925597 6.07124C0.880205 6.03905 0.841642 5.99819 0.812135 5.95102C0.782628 5.90384 0.762763 5.85129 0.753688 5.79639C0.744612 5.74149 0.746507 5.68534 0.759261 5.63118C0.772016 5.57701 0.795377 5.52592 0.827997 5.48084L2.7768 2.72564C2.908 2.53844 3.1752 2.49044 3.3656 2.62804L5.8888 4.41524V1.32244C5.8888 1.08564 6.0792 0.898438 6.3128 0.898438H9.6904C9.9256 0.898438 10.1096 1.08884 10.1096 1.32244V4.41844L12.636 2.62804C12.7272 2.56084 12.836 2.53844 12.9448 2.55764C13.06 2.57524 13.1544 2.63604 13.2248 2.72564L15.1768 5.48084C15.308 5.67284 15.268 5.93524 15.0792 6.07124L11.652 8.49844L15.076 10.9272C15.2664 11.0616 15.3048 11.3272 15.1704 11.516Z" fill="url(#paint0_linear_1458_23824)"/>
</g>
<defs>
<linearGradient id="paint0_linear_1458_23824" x1="8.00078" y1="0.898437" x2="8.00078" y2="16.0984" gradientUnits="userSpaceOnUse">
<stop stop-color="#01336F"/>
<stop offset="1" stop-color="#0262D5"/>
</linearGradient>
<clipPath id="clip0_1458_23824">
<rect width="16" height="16" fill="white" transform="translate(0 0.5)"/>
</clipPath>
</defs>
</svg>
