<svg width="24" height="24" viewBox="0 0 24 24" fill="none" xmlns="http://www.w3.org/2000/svg">
<mask id="path-1-inside-1_1743_6131" fill="white">
<path fill-rule="evenodd" clip-rule="evenodd" d="M8.21228 4.64656C8.58956 4.98194 8.91433 5.44586 9.22748 5.86384L9.62876 4.92746C9.14838 4.45192 9.2725 3.63775 9.88426 3.33184C10.0993 3.22437 10.3522 3.19399 10.5983 3.2633C11.701 3.57376 11.5877 4.91311 11.2328 6.17373C11.0733 6.74023 10.8674 7.28767 10.7152 7.69221C10.654 7.85483 10.602 7.99327 10.565 8.10184C10.3742 8.66344 9.72442 8.91405 9.20593 8.62514C8.8285 8.4148 8.40721 8.13285 8.00564 7.81437L6.9998 9.42635C7.5122 9.45962 8.10452 9.49058 8.55078 9.66923C9.13887 9.90467 9.46743 10.3339 9.13594 11.1619L9.13518 11.1616C9.10373 11.2398 8.66444 11.8791 7.49871 14.1503C7.98639 14.4054 8.42933 14.7582 8.51041 15.3275L8.50983 15.3276C8.537 15.5202 8.39055 15.6944 8.19509 15.699L5.16154 15.7708C4.90849 15.7809 4.74956 15.5286 4.84609 15.3127L5.42535 14.0185L5.42554 14.0186C5.74052 13.3223 5.8958 12.7896 6.16215 11.8925C5.28663 12.1136 4.08538 12.1335 3.36663 11.5555C2.53791 10.8891 2.74037 9.80421 3.29165 8.80183L4.53366 6.54357C4.94962 5.78723 5.39247 4.73887 6.06428 4.25248C5.23878 3.18439 6.00135 1.62112 7.3574 1.62112C8.25941 1.62112 8.99079 2.3525 8.99079 3.25451C8.99084 3.8357 8.68604 4.35501 8.21228 4.64656ZM19.0344 15.6176C18.2474 15.6176 17.5806 16.1772 17.4318 16.9342C16.915 16.66 16.2462 16.768 15.6367 16.7706L13.0409 16.7818C12.0334 16.7856 12.038 16.7485 11.1264 17.09L9.31258 17.7643L3.74871 18.3986C3.69523 18.4024 3.64349 18.4193 3.5981 18.4478C3.5527 18.4763 3.51504 18.5156 3.48845 18.5622C2.92268 19.5501 2.84377 20.749 2.98249 21.8585L2.9834 21.8584C2.99241 21.9321 3.02635 22.0006 3.07959 22.0524C3.13282 22.1041 3.20216 22.1362 3.2761 22.1432C3.55954 22.17 4.04905 22.2185 4.43789 22.1332C4.90551 22.0307 5.23594 21.7755 5.11253 21.2126C5.03074 20.8396 4.84666 20.7524 4.88737 20.5518C4.91377 20.5521 4.95025 20.5548 4.99177 20.5584L4.99186 20.5572C5.00276 20.5581 5.0138 20.5585 5.02494 20.5584C7.62164 20.514 9.68482 20.49 11.3232 20.471C12.439 20.458 13.3589 20.4473 14.1056 20.4343C14.7402 20.4233 15.371 20.4922 16.0691 20.4438C16.0958 21.2684 16.2446 22.1536 16.4417 22.5906C16.4695 22.6523 16.5158 22.7038 16.5742 22.7381C16.6325 22.7723 16.7001 22.7875 16.7675 22.7817C19.3946 22.7277 20.6089 22.7188 20.6125 22.7187C20.6708 22.7185 20.7279 22.7026 20.778 22.6728C20.8281 22.6429 20.8692 22.6001 20.8971 22.5489C21.0084 22.3449 21.0895 22.1259 21.138 21.8986C21.2237 21.4971 21.2243 20.8473 20.9572 20.5536C20.7906 20.3704 20.5555 20.3004 20.1863 20.3595C19.7988 20.4214 19.6881 20.5859 19.5642 20.9343C19.1184 20.8756 18.5178 20.9136 18.0624 20.9572C18.2198 20.3248 18.4346 19.4572 18.4276 18.7679C19.4938 19.1947 20.6678 18.4097 20.6678 17.2509C20.6678 16.3489 19.9364 15.6176 19.0344 15.6176ZM19.7272 16.5581C20.1098 16.9407 20.1098 17.5612 19.7272 17.9438C19.1118 18.5593 18.0547 18.1214 18.0547 17.251C18.0547 16.3806 19.1117 15.9426 19.7272 16.5581ZM16.9637 22.1263C16.8098 21.6335 16.6985 20.7757 16.718 19.9933C16.7383 19.1803 16.8851 18.4339 17.2585 18.2652C17.3846 18.2083 17.5988 18.1914 17.6886 18.3019C17.9663 18.6435 17.6361 19.9703 17.4266 20.8119C17.3891 20.9626 17.3554 21.098 17.3243 21.2362C17.2584 21.4857 17.4566 21.6799 17.6737 21.6551C18.2064 21.5942 19.198 21.4857 19.6973 21.6222C19.7777 21.6441 19.8634 21.6344 19.9367 21.595C20.0101 21.5556 20.0656 21.4895 20.0918 21.4104C20.1541 21.2223 20.2109 21.0152 20.2884 21.0029C20.4098 20.9835 20.4643 20.9814 20.4746 20.9928C20.5033 21.0243 20.5185 21.1272 20.5322 21.2744C20.5563 21.5329 20.5071 21.8211 20.4051 22.0696C19.9728 22.0742 18.8482 22.0883 16.9637 22.1263ZM16.0742 19.7896C15.3966 19.8433 14.7375 19.772 14.0954 19.7833C13.3386 19.7965 12.4255 19.8071 11.3181 19.8199C9.67858 19.839 7.6154 19.8629 5.04241 19.9069C4.8997 19.8947 4.76818 19.8943 4.63724 19.9396C4.46199 20.0002 4.33393 20.119 4.26937 20.3401C4.10501 20.9031 4.40866 21.0512 4.47423 21.3505C4.52372 21.5763 3.72937 21.5265 3.60293 21.5176C3.52834 20.6795 3.59794 19.7826 3.97844 19.0291L9.42198 18.4085C9.4558 18.4048 9.48884 18.3958 9.5199 18.3819L11.1042 17.7934C11.1958 17.7594 11.2784 17.7284 11.3535 17.7003C12.0782 17.4288 12.047 17.4358 12.8337 17.4336L15.6392 17.4217C16.1923 17.4193 16.8152 17.3125 17.2126 17.5978C16.4043 17.7776 16.1279 18.7592 16.0742 19.7896ZM16.3583 4.23405C15.4414 4.71669 14.4558 5.50461 13.6102 6.31029C13.6018 6.31826 13.593 6.32578 13.5839 6.3328C13.0444 6.76302 13.1733 7.25891 13.5863 7.76469L13.5869 7.76416L14.5879 8.98811C14.6728 9.09189 14.6418 9.20541 14.804 9.30203C14.9513 9.38983 15.1447 9.3557 15.253 9.22423C15.4507 8.98418 15.2367 8.55981 15.036 8.56615C14.9699 8.56821 14.9047 8.55012 14.8492 8.5143C14.7936 8.47847 14.7503 8.4266 14.7249 8.36555L14.7244 8.36575C14.3439 7.4561 14.1007 7.09634 14.1 7.09528C13.9981 6.94375 14.036 6.7457 14.1971 6.63626L15.6667 5.59038L16.196 5.21402L16.1956 5.21354C16.6237 4.93327 16.8891 4.57437 16.7655 4.33067C16.6922 4.18586 16.5082 4.16392 16.3583 4.23405ZM14.6461 4.56799C14.1862 4.91483 13.689 5.33469 13.167 5.83202C12.7706 6.16058 12.585 6.53359 12.5741 6.93352C12.5631 7.3385 12.7475 7.77736 13.0819 8.17735L13.0813 8.17787L14.0456 9.35699C14.1259 9.56814 14.2752 9.74589 14.4694 9.86128C14.6643 9.97771 14.8929 10.0245 15.1178 9.99386L14.8806 12.2615C13.5605 12.7512 12.6866 12.9014 12.6839 12.9018C12.6325 12.9108 12.584 12.9319 12.5425 12.9634C12.501 12.995 12.4676 13.036 12.4452 13.0831L11.6699 14.7112C11.6394 14.7754 11.6306 14.8478 11.6449 14.9174C11.6592 14.987 11.6958 15.0501 11.7491 15.097C12.0119 15.3413 12.3323 15.4294 12.7112 15.3454C13.1225 15.2543 13.4961 14.9691 13.7822 14.5987C14.297 14.5829 14.8412 14.5818 15.4589 14.5201C15.8834 14.4777 16.5519 14.4067 16.6922 14.0232C16.9322 13.3673 17.0372 12.7215 17.3025 12.0272L17.4289 11.6967C17.67 11.783 17.9328 11.866 18.2191 11.9462C18.1254 13.0004 18.1479 13.8259 17.7335 14.9308C17.6497 15.154 17.8148 15.377 18.0392 15.3749L20.0435 15.3542C20.0839 15.3565 20.1243 15.3512 20.1627 15.3387C20.849 15.1155 21.0027 14.1813 20.0919 13.6811C20.3701 12.0125 20.3481 10.8994 20.3429 10.7338C20.4218 9.83243 19.7464 9.58648 18.9407 9.2933C18.8072 9.24472 18.6693 9.19451 18.532 9.13912C19.0453 7.4392 19.3174 5.69709 18.8026 4.09523C19.4897 3.54554 19.6045 2.51042 19.0336 1.81173C18.4666 1.11775 17.4447 1.01325 16.7502 1.58075C16.1621 2.06123 15.9847 2.88439 16.3239 3.56248C16.2395 3.57991 16.1541 3.60851 16.0694 3.64946C15.7102 3.82581 15.1174 4.2125 14.6461 4.56799ZM17.4458 4.42677C17.7041 4.48034 17.964 4.47151 18.2154 4.40085C18.6613 5.91203 18.3379 7.60706 17.8246 9.22331C17.8008 9.29841 17.805 9.37958 17.8365 9.45178C17.868 9.52398 17.9247 9.58231 17.9959 9.61595L17.9956 9.61653C18.2383 9.7312 18.4848 9.82091 18.7186 9.90597C19.2716 10.1072 19.7343 10.2756 19.6923 10.693C19.6906 10.7101 19.6903 10.7274 19.6913 10.7446C19.695 10.843 19.7302 12.0152 19.4084 13.8134C19.3951 13.8878 19.4081 13.9645 19.4451 14.0304C19.4821 14.0963 19.541 14.1472 19.6115 14.1745L19.6114 14.1746C19.8218 14.2566 20.0709 14.4192 20.075 14.5839C20.0766 14.6434 20.0267 14.6959 19.9965 14.7034L18.4896 14.719C18.8195 13.6349 18.7855 12.8215 18.8936 11.7351C18.9014 11.6564 18.8802 11.5776 18.8342 11.5133C18.7882 11.4491 18.7203 11.4038 18.6434 11.3858C17.9442 11.2136 17.0292 10.9024 16.452 10.5039C16.1374 10.2867 15.9263 10.0522 15.794 9.79533L15.8195 9.55178C15.8665 9.48061 15.9043 9.40371 15.9318 9.32296C16.0595 8.93555 15.9445 8.48968 15.6674 8.19328C15.7384 7.75101 15.8617 7.25272 15.9978 6.70202C16.0524 6.48127 16.1089 6.25269 16.1597 6.03938L16.5529 5.75959L16.5531 5.75983C17.1883 5.34405 17.4588 4.85791 17.4458 4.42677ZM15.347 6.61792C15.2592 6.97288 15.1775 7.30658 15.1112 7.62347C14.9868 7.35323 14.8818 7.14933 14.8029 7.00509L15.347 6.61792ZM18.5282 2.22271C18.6092 2.32157 18.6698 2.43548 18.7067 2.55787C18.7435 2.68027 18.7558 2.80873 18.7428 2.93589C18.6561 3.79783 17.5667 4.11631 17.0248 3.45309C16.6857 3.03803 16.7459 2.42565 17.1613 2.08619C17.5764 1.74707 18.1887 1.80731 18.5282 2.22271ZM16.8232 11.4526L16.6924 11.7948C16.4181 12.5123 16.3099 13.1713 16.0795 13.8009C16.0652 13.8401 16.0564 13.7575 15.9863 13.7764C15.4851 13.911 14.4093 13.9322 13.959 13.9427C13.7788 13.9468 13.6414 13.9501 13.5867 13.9542V13.9545C13.5378 13.9581 13.4904 13.9727 13.448 13.9972C13.4055 14.0217 13.3692 14.0554 13.3416 14.0959C13.1277 14.4092 12.7428 14.769 12.3896 14.7194L12.9645 13.512C13.3117 13.4388 14.1709 13.2341 15.3001 12.8011L15.2999 12.8007C15.3563 12.7792 15.4057 12.7424 15.4425 12.6945C15.4793 12.6465 15.502 12.5893 15.5081 12.5292L15.6963 10.7301C16.0082 11.0255 16.3982 11.2589 16.8232 11.4526ZM7.30378 4.23285C7.33142 4.23184 7.35908 4.23218 7.38668 4.23386C7.63636 4.22674 7.87382 4.12423 8.05023 3.94739C8.66574 3.33189 8.22778 2.27483 7.3574 2.27483C6.48706 2.27483 6.04906 3.33189 6.66457 3.94739C6.83505 4.11825 7.06276 4.21994 7.30378 4.23285ZM7.5037 7.38621C7.07079 6.98762 6.66538 6.52605 6.44194 6.07269C6.21956 5.62154 6.17564 5.18248 6.40983 4.80472C5.89973 5.19472 5.45026 6.23104 5.10562 6.85763L3.86362 9.11589C3.24629 10.2384 3.24457 11.1534 4.56366 11.351C5.20546 11.4472 5.96492 11.3295 6.52561 11.0862C6.58257 11.0616 6.64537 11.0538 6.70661 11.0638C6.76784 11.0737 6.82497 11.1009 6.87124 11.1423C6.91752 11.1836 6.95101 11.2373 6.96779 11.297C6.98456 11.3567 6.98391 11.42 6.96591 11.4794L6.96605 11.4794C6.68002 12.4199 6.40791 13.4577 6.02012 14.284L6.02026 14.2841L5.65158 15.1078L7.67429 15.0599C7.49713 14.8769 7.21062 14.7249 6.9241 14.5984C6.75289 14.5228 6.68007 14.3187 6.7647 14.1517L6.7645 14.1516C7.86913 11.9825 8.42895 11.0721 8.53959 10.8968C8.67178 10.5461 8.54233 10.3681 8.30823 10.2744C7.81047 10.0751 6.95535 10.1081 6.39553 10.0257C6.15092 9.98973 6.04364 9.71771 6.17233 9.51981L7.5037 7.38621ZM10.009 4.34498C10.0379 4.42021 10.0924 4.48283 10.163 4.52181C10.241 4.5567 10.3021 4.6208 10.3333 4.70032C10.3645 4.77985 10.3633 4.86844 10.3298 4.94704L9.61196 6.622L9.61172 6.62191C9.51961 6.83877 9.22705 6.89195 9.06687 6.70883C8.6835 6.27064 8.28999 5.63239 7.87935 5.22765C7.59001 4.94248 7.29533 4.79685 7.02577 5.0704C6.60442 5.49794 7.41567 6.39069 7.77284 6.74272C8.2839 7.24639 8.94942 7.73647 9.52258 8.05581C9.68391 8.14571 9.88585 8.07309 9.94719 7.89251C10.2077 7.12595 11.4802 4.18931 10.4221 3.89143C10.147 3.81395 9.90802 4.08395 10.009 4.34498Z"/>
</mask>
<path fill-rule="evenodd" clip-rule="evenodd" d="M8.21228 4.64656C8.58956 4.98194 8.91433 5.44586 9.22748 5.86384L9.62876 4.92746C9.14838 4.45192 9.2725 3.63775 9.88426 3.33184C10.0993 3.22437 10.3522 3.19399 10.5983 3.2633C11.701 3.57376 11.5877 4.91311 11.2328 6.17373C11.0733 6.74023 10.8674 7.28767 10.7152 7.69221C10.654 7.85483 10.602 7.99327 10.565 8.10184C10.3742 8.66344 9.72442 8.91405 9.20593 8.62514C8.8285 8.4148 8.40721 8.13285 8.00564 7.81437L6.9998 9.42635C7.5122 9.45962 8.10452 9.49058 8.55078 9.66923C9.13887 9.90467 9.46743 10.3339 9.13594 11.1619L9.13518 11.1616C9.10373 11.2398 8.66444 11.8791 7.49871 14.1503C7.98639 14.4054 8.42933 14.7582 8.51041 15.3275L8.50983 15.3276C8.537 15.5202 8.39055 15.6944 8.19509 15.699L5.16154 15.7708C4.90849 15.7809 4.74956 15.5286 4.84609 15.3127L5.42535 14.0185L5.42554 14.0186C5.74052 13.3223 5.8958 12.7896 6.16215 11.8925C5.28663 12.1136 4.08538 12.1335 3.36663 11.5555C2.53791 10.8891 2.74037 9.80421 3.29165 8.80183L4.53366 6.54357C4.94962 5.78723 5.39247 4.73887 6.06428 4.25248C5.23878 3.18439 6.00135 1.62112 7.3574 1.62112C8.25941 1.62112 8.99079 2.3525 8.99079 3.25451C8.99084 3.8357 8.68604 4.35501 8.21228 4.64656ZM19.0344 15.6176C18.2474 15.6176 17.5806 16.1772 17.4318 16.9342C16.915 16.66 16.2462 16.768 15.6367 16.7706L13.0409 16.7818C12.0334 16.7856 12.038 16.7485 11.1264 17.09L9.31258 17.7643L3.74871 18.3986C3.69523 18.4024 3.64349 18.4193 3.5981 18.4478C3.5527 18.4763 3.51504 18.5156 3.48845 18.5622C2.92268 19.5501 2.84377 20.749 2.98249 21.8585L2.9834 21.8584C2.99241 21.9321 3.02635 22.0006 3.07959 22.0524C3.13282 22.1041 3.20216 22.1362 3.2761 22.1432C3.55954 22.17 4.04905 22.2185 4.43789 22.1332C4.90551 22.0307 5.23594 21.7755 5.11253 21.2126C5.03074 20.8396 4.84666 20.7524 4.88737 20.5518C4.91377 20.5521 4.95025 20.5548 4.99177 20.5584L4.99186 20.5572C5.00276 20.5581 5.0138 20.5585 5.02494 20.5584C7.62164 20.514 9.68482 20.49 11.3232 20.471C12.439 20.458 13.3589 20.4473 14.1056 20.4343C14.7402 20.4233 15.371 20.4922 16.0691 20.4438C16.0958 21.2684 16.2446 22.1536 16.4417 22.5906C16.4695 22.6523 16.5158 22.7038 16.5742 22.7381C16.6325 22.7723 16.7001 22.7875 16.7675 22.7817C19.3946 22.7277 20.6089 22.7188 20.6125 22.7187C20.6708 22.7185 20.7279 22.7026 20.778 22.6728C20.8281 22.6429 20.8692 22.6001 20.8971 22.5489C21.0084 22.3449 21.0895 22.1259 21.138 21.8986C21.2237 21.4971 21.2243 20.8473 20.9572 20.5536C20.7906 20.3704 20.5555 20.3004 20.1863 20.3595C19.7988 20.4214 19.6881 20.5859 19.5642 20.9343C19.1184 20.8756 18.5178 20.9136 18.0624 20.9572C18.2198 20.3248 18.4346 19.4572 18.4276 18.7679C19.4938 19.1947 20.6678 18.4097 20.6678 17.2509C20.6678 16.3489 19.9364 15.6176 19.0344 15.6176ZM19.7272 16.5581C20.1098 16.9407 20.1098 17.5612 19.7272 17.9438C19.1118 18.5593 18.0547 18.1214 18.0547 17.251C18.0547 16.3806 19.1117 15.9426 19.7272 16.5581ZM16.9637 22.1263C16.8098 21.6335 16.6985 20.7757 16.718 19.9933C16.7383 19.1803 16.8851 18.4339 17.2585 18.2652C17.3846 18.2083 17.5988 18.1914 17.6886 18.3019C17.9663 18.6435 17.6361 19.9703 17.4266 20.8119C17.3891 20.9626 17.3554 21.098 17.3243 21.2362C17.2584 21.4857 17.4566 21.6799 17.6737 21.6551C18.2064 21.5942 19.198 21.4857 19.6973 21.6222C19.7777 21.6441 19.8634 21.6344 19.9367 21.595C20.0101 21.5556 20.0656 21.4895 20.0918 21.4104C20.1541 21.2223 20.2109 21.0152 20.2884 21.0029C20.4098 20.9835 20.4643 20.9814 20.4746 20.9928C20.5033 21.0243 20.5185 21.1272 20.5322 21.2744C20.5563 21.5329 20.5071 21.8211 20.4051 22.0696C19.9728 22.0742 18.8482 22.0883 16.9637 22.1263ZM16.0742 19.7896C15.3966 19.8433 14.7375 19.772 14.0954 19.7833C13.3386 19.7965 12.4255 19.8071 11.3181 19.8199C9.67858 19.839 7.6154 19.8629 5.04241 19.9069C4.8997 19.8947 4.76818 19.8943 4.63724 19.9396C4.46199 20.0002 4.33393 20.119 4.26937 20.3401C4.10501 20.9031 4.40866 21.0512 4.47423 21.3505C4.52372 21.5763 3.72937 21.5265 3.60293 21.5176C3.52834 20.6795 3.59794 19.7826 3.97844 19.0291L9.42198 18.4085C9.4558 18.4048 9.48884 18.3958 9.5199 18.3819L11.1042 17.7934C11.1958 17.7594 11.2784 17.7284 11.3535 17.7003C12.0782 17.4288 12.047 17.4358 12.8337 17.4336L15.6392 17.4217C16.1923 17.4193 16.8152 17.3125 17.2126 17.5978C16.4043 17.7776 16.1279 18.7592 16.0742 19.7896ZM16.3583 4.23405C15.4414 4.71669 14.4558 5.50461 13.6102 6.31029C13.6018 6.31826 13.593 6.32578 13.5839 6.3328C13.0444 6.76302 13.1733 7.25891 13.5863 7.76469L13.5869 7.76416L14.5879 8.98811C14.6728 9.09189 14.6418 9.20541 14.804 9.30203C14.9513 9.38983 15.1447 9.3557 15.253 9.22423C15.4507 8.98418 15.2367 8.55981 15.036 8.56615C14.9699 8.56821 14.9047 8.55012 14.8492 8.5143C14.7936 8.47847 14.7503 8.4266 14.7249 8.36555L14.7244 8.36575C14.3439 7.4561 14.1007 7.09634 14.1 7.09528C13.9981 6.94375 14.036 6.7457 14.1971 6.63626L15.6667 5.59038L16.196 5.21402L16.1956 5.21354C16.6237 4.93327 16.8891 4.57437 16.7655 4.33067C16.6922 4.18586 16.5082 4.16392 16.3583 4.23405ZM14.6461 4.56799C14.1862 4.91483 13.689 5.33469 13.167 5.83202C12.7706 6.16058 12.585 6.53359 12.5741 6.93352C12.5631 7.3385 12.7475 7.77736 13.0819 8.17735L13.0813 8.17787L14.0456 9.35699C14.1259 9.56814 14.2752 9.74589 14.4694 9.86128C14.6643 9.97771 14.8929 10.0245 15.1178 9.99386L14.8806 12.2615C13.5605 12.7512 12.6866 12.9014 12.6839 12.9018C12.6325 12.9108 12.584 12.9319 12.5425 12.9634C12.501 12.995 12.4676 13.036 12.4452 13.0831L11.6699 14.7112C11.6394 14.7754 11.6306 14.8478 11.6449 14.9174C11.6592 14.987 11.6958 15.0501 11.7491 15.097C12.0119 15.3413 12.3323 15.4294 12.7112 15.3454C13.1225 15.2543 13.4961 14.9691 13.7822 14.5987C14.297 14.5829 14.8412 14.5818 15.4589 14.5201C15.8834 14.4777 16.5519 14.4067 16.6922 14.0232C16.9322 13.3673 17.0372 12.7215 17.3025 12.0272L17.4289 11.6967C17.67 11.783 17.9328 11.866 18.2191 11.9462C18.1254 13.0004 18.1479 13.8259 17.7335 14.9308C17.6497 15.154 17.8148 15.377 18.0392 15.3749L20.0435 15.3542C20.0839 15.3565 20.1243 15.3512 20.1627 15.3387C20.849 15.1155 21.0027 14.1813 20.0919 13.6811C20.3701 12.0125 20.3481 10.8994 20.3429 10.7338C20.4218 9.83243 19.7464 9.58648 18.9407 9.2933C18.8072 9.24472 18.6693 9.19451 18.532 9.13912C19.0453 7.4392 19.3174 5.69709 18.8026 4.09523C19.4897 3.54554 19.6045 2.51042 19.0336 1.81173C18.4666 1.11775 17.4447 1.01325 16.7502 1.58075C16.1621 2.06123 15.9847 2.88439 16.3239 3.56248C16.2395 3.57991 16.1541 3.60851 16.0694 3.64946C15.7102 3.82581 15.1174 4.2125 14.6461 4.56799ZM17.4458 4.42677C17.7041 4.48034 17.964 4.47151 18.2154 4.40085C18.6613 5.91203 18.3379 7.60706 17.8246 9.22331C17.8008 9.29841 17.805 9.37958 17.8365 9.45178C17.868 9.52398 17.9247 9.58231 17.9959 9.61595L17.9956 9.61653C18.2383 9.7312 18.4848 9.82091 18.7186 9.90597C19.2716 10.1072 19.7343 10.2756 19.6923 10.693C19.6906 10.7101 19.6903 10.7274 19.6913 10.7446C19.695 10.843 19.7302 12.0152 19.4084 13.8134C19.3951 13.8878 19.4081 13.9645 19.4451 14.0304C19.4821 14.0963 19.541 14.1472 19.6115 14.1745L19.6114 14.1746C19.8218 14.2566 20.0709 14.4192 20.075 14.5839C20.0766 14.6434 20.0267 14.6959 19.9965 14.7034L18.4896 14.719C18.8195 13.6349 18.7855 12.8215 18.8936 11.7351C18.9014 11.6564 18.8802 11.5776 18.8342 11.5133C18.7882 11.4491 18.7203 11.4038 18.6434 11.3858C17.9442 11.2136 17.0292 10.9024 16.452 10.5039C16.1374 10.2867 15.9263 10.0522 15.794 9.79533L15.8195 9.55178C15.8665 9.48061 15.9043 9.40371 15.9318 9.32296C16.0595 8.93555 15.9445 8.48968 15.6674 8.19328C15.7384 7.75101 15.8617 7.25272 15.9978 6.70202C16.0524 6.48127 16.1089 6.25269 16.1597 6.03938L16.5529 5.75959L16.5531 5.75983C17.1883 5.34405 17.4588 4.85791 17.4458 4.42677ZM15.347 6.61792C15.2592 6.97288 15.1775 7.30658 15.1112 7.62347C14.9868 7.35323 14.8818 7.14933 14.8029 7.00509L15.347 6.61792ZM18.5282 2.22271C18.6092 2.32157 18.6698 2.43548 18.7067 2.55787C18.7435 2.68027 18.7558 2.80873 18.7428 2.93589C18.6561 3.79783 17.5667 4.11631 17.0248 3.45309C16.6857 3.03803 16.7459 2.42565 17.1613 2.08619C17.5764 1.74707 18.1887 1.80731 18.5282 2.22271ZM16.8232 11.4526L16.6924 11.7948C16.4181 12.5123 16.3099 13.1713 16.0795 13.8009C16.0652 13.8401 16.0564 13.7575 15.9863 13.7764C15.4851 13.911 14.4093 13.9322 13.959 13.9427C13.7788 13.9468 13.6414 13.9501 13.5867 13.9542V13.9545C13.5378 13.9581 13.4904 13.9727 13.448 13.9972C13.4055 14.0217 13.3692 14.0554 13.3416 14.0959C13.1277 14.4092 12.7428 14.769 12.3896 14.7194L12.9645 13.512C13.3117 13.4388 14.1709 13.2341 15.3001 12.8011L15.2999 12.8007C15.3563 12.7792 15.4057 12.7424 15.4425 12.6945C15.4793 12.6465 15.502 12.5893 15.5081 12.5292L15.6963 10.7301C16.0082 11.0255 16.3982 11.2589 16.8232 11.4526ZM7.30378 4.23285C7.33142 4.23184 7.35908 4.23218 7.38668 4.23386C7.63636 4.22674 7.87382 4.12423 8.05023 3.94739C8.66574 3.33189 8.22778 2.27483 7.3574 2.27483C6.48706 2.27483 6.04906 3.33189 6.66457 3.94739C6.83505 4.11825 7.06276 4.21994 7.30378 4.23285ZM7.5037 7.38621C7.07079 6.98762 6.66538 6.52605 6.44194 6.07269C6.21956 5.62154 6.17564 5.18248 6.40983 4.80472C5.89973 5.19472 5.45026 6.23104 5.10562 6.85763L3.86362 9.11589C3.24629 10.2384 3.24457 11.1534 4.56366 11.351C5.20546 11.4472 5.96492 11.3295 6.52561 11.0862C6.58257 11.0616 6.64537 11.0538 6.70661 11.0638C6.76784 11.0737 6.82497 11.1009 6.87124 11.1423C6.91752 11.1836 6.95101 11.2373 6.96779 11.297C6.98456 11.3567 6.98391 11.42 6.96591 11.4794L6.96605 11.4794C6.68002 12.4199 6.40791 13.4577 6.02012 14.284L6.02026 14.2841L5.65158 15.1078L7.67429 15.0599C7.49713 14.8769 7.21062 14.7249 6.9241 14.5984C6.75289 14.5228 6.68007 14.3187 6.7647 14.1517L6.7645 14.1516C7.86913 11.9825 8.42895 11.0721 8.53959 10.8968C8.67178 10.5461 8.54233 10.3681 8.30823 10.2744C7.81047 10.0751 6.95535 10.1081 6.39553 10.0257C6.15092 9.98973 6.04364 9.71771 6.17233 9.51981L7.5037 7.38621ZM10.009 4.34498C10.0379 4.42021 10.0924 4.48283 10.163 4.52181C10.241 4.5567 10.3021 4.6208 10.3333 4.70032C10.3645 4.77985 10.3633 4.86844 10.3298 4.94704L9.61196 6.622L9.61172 6.62191C9.51961 6.83877 9.22705 6.89195 9.06687 6.70883C8.6835 6.27064 8.28999 5.63239 7.87935 5.22765C7.59001 4.94248 7.29533 4.79685 7.02577 5.0704C6.60442 5.49794 7.41567 6.39069 7.77284 6.74272C8.2839 7.24639 8.94942 7.73647 9.52258 8.05581C9.68391 8.14571 9.88585 8.07309 9.94719 7.89251C10.2077 7.12595 11.4802 4.18931 10.4221 3.89143C10.147 3.81395 9.90802 4.08395 10.009 4.34498Z" fill="black" stroke="black" stroke-width="0.096" mask="url(#path-1-inside-1_1743_6131)"/>
</svg>
