<svg width="24" height="24" viewBox="0 0 24 24" fill="none" xmlns="http://www.w3.org/2000/svg">
<g clip-path="url(#clip0_1579_6938)">
<path d="M18.9856 7.59923C19.3364 7.59848 19.6809 7.50579 19.9848 7.33039C20.2886 7.15499 20.5411 6.90301 20.7172 6.59958C20.7525 6.53869 20.771 6.46958 20.771 6.39923C20.771 6.32888 20.7525 6.25977 20.7172 6.19888C20.5417 5.89494 20.2893 5.64255 19.9853 5.46707C19.6814 5.2916 19.3366 5.19922 18.9856 5.19922C18.6346 5.19922 18.2898 5.2916 17.9859 5.46707C17.6819 5.64255 17.4295 5.89494 17.254 6.19888C17.2187 6.25977 17.2002 6.32888 17.2002 6.39923C17.2002 6.46958 17.2187 6.53869 17.254 6.59958C17.4301 6.90301 17.6826 7.15498 17.9865 7.33037C18.2903 7.50577 18.6348 7.59847 18.9856 7.59923ZM18.9856 5.99923C19.1543 5.99961 19.321 6.03541 19.4749 6.10432C19.6289 6.17323 19.7666 6.2737 19.8793 6.39923C19.7669 6.52507 19.6292 6.62574 19.4752 6.69468C19.3212 6.76361 19.1543 6.79924 18.9856 6.79924C18.8169 6.79924 18.6501 6.76361 18.4961 6.69468C18.3421 6.62574 18.2043 6.52507 18.0919 6.39923C18.2046 6.2737 18.3423 6.17323 18.4963 6.10433C18.6502 6.03542 18.8169 5.99962 18.9856 5.99923Z" fill="white"/>
<path d="M21.5834 20.5371C21.3206 20.3215 21.0103 20.0916 20.6584 19.8512C22.3965 18.8151 23.6001 16.64 23.6001 14.3984C23.6001 12.3666 22.7995 9.93169 21.0109 9.07204C20.2712 8.71654 19.1332 8.53204 17.6387 9.35109C17.5673 8.63679 17.3502 8.03964 17.1459 7.47899C16.7599 6.41979 16.455 5.58319 17.1579 4.17734L16.4424 3.81954C15.5854 5.53354 15.9966 6.66179 16.3943 7.75294C16.6255 8.38744 16.8612 9.03479 16.8593 9.85034C16.8393 9.86479 16.8199 9.87839 16.8 9.89319C15.7021 9.07649 14.7647 8.78929 14 8.77164V6.39844C13.9996 6.31196 13.9716 6.22789 13.92 6.15844L11.6001 3.06514V0.798438C11.6001 0.692351 11.558 0.590609 11.483 0.515595C11.408 0.44058 11.3062 0.398438 11.2001 0.398438H4.00013C3.89405 0.398438 3.79231 0.44058 3.71729 0.515595C3.64228 0.590609 3.60013 0.692351 3.60013 0.798438V3.06514L1.28013 6.15844C1.22862 6.22789 1.20059 6.31196 1.20013 6.39844V15.0557C0.841861 15.2729 0.581233 15.62 0.472584 16.0246C0.303634 16.6075 0.345234 17.4546 1.50298 18.1813C1.77185 18.3463 2.05459 18.4876 2.34798 18.6035C1.16233 19.2481 1.02038 20.0385 1.02463 20.3969C1.03338 21.1295 1.60568 21.7669 2.48263 22.0212C2.61298 22.0584 2.74794 22.077 2.88348 22.0762C3.60423 22.0762 4.49403 21.5887 5.53593 20.6212C5.84918 20.3304 6.13593 20.0343 6.37553 19.7727C6.41782 20.1281 6.54438 20.4682 6.74468 20.7648C7.23038 21.4841 8.15713 21.9996 9.84343 22.4883C11.4642 22.9581 14.5271 23.4033 17.1264 23.5474C17.7318 23.5809 18.3008 23.5974 18.8242 23.5974C19.4589 23.6028 20.0934 23.5702 20.7242 23.4998C21.9526 23.3482 22.5979 23.0248 22.7552 22.4823C22.9124 21.9397 22.5401 21.322 21.5834 20.5371ZM16.7551 10.7947C16.6987 11.057 16.625 11.3153 16.5345 11.5678C16.3733 11.5311 16.2213 11.4615 16.0881 11.3635C15.955 11.2655 15.8434 11.1411 15.7603 10.9981L15.0678 11.3987C15.2434 11.7027 15.4959 11.9551 15.8 12.1306C16.104 12.3061 16.4489 12.3984 16.8 12.3984C17.151 12.3984 17.4959 12.3061 17.8 12.1306C18.104 11.9551 18.3566 11.7027 18.5322 11.3987L17.8397 10.9981C17.7383 11.1726 17.5947 11.3188 17.4219 11.4231C17.5327 11.0505 17.6067 10.668 17.6429 10.2809C18.7697 9.54984 19.8048 9.37979 20.6642 9.79289C21.9219 10.3974 22.8001 12.2912 22.8001 14.3984C22.8001 16.4855 21.563 18.5737 19.8935 19.3528C19.4876 19.0996 19.0439 18.8383 18.5685 18.5728C16.2951 17.3045 13.4685 16.0428 11.848 15.5732C11.4988 15.472 11.177 15.3895 10.8784 15.3248C10.8269 15.0187 10.8007 14.7089 10.8001 14.3984C10.8001 12.2912 11.6784 10.3974 12.9359 9.79309C13.9442 9.30844 15.194 9.62579 16.5502 10.7108C16.6092 10.7576 16.6803 10.7867 16.7551 10.7947ZM2.00013 6.79844H8.40013V9.19844H2.00013V6.79844ZM9.20013 6.79844H13.2001V8.85514C12.9894 8.90554 12.7847 8.97825 12.5893 9.07204C10.8007 9.93169 10.0001 12.3666 10.0001 14.3984C10.0005 14.6616 10.0171 14.9244 10.0498 15.1855C9.76793 15.1515 9.48349 15.1436 9.20013 15.162V6.79844ZM9.60013 5.99844L11.2001 3.86509L12.8001 5.99844H9.60013ZM4.40013 1.19844H10.8001V2.79844H4.40013V1.19844ZM4.20013 3.59844H10.4001L8.60013 5.99844H2.40013L4.20013 3.59844ZM2.00013 9.99844H8.40013V15.3348C8.36898 15.3469 8.33803 15.3594 8.30768 15.3727C7.97993 15.5158 7.69107 15.7351 7.46513 16.0123C7.40238 15.6633 7.31873 15.2604 7.20968 14.8477C6.77593 13.2061 6.15968 12.2588 5.37803 12.0323C4.50103 11.7781 3.67643 12.0108 3.27743 12.6252C3.08243 12.9256 2.77938 13.6696 3.43663 14.8483C3.12665 14.7895 2.81213 14.7577 2.49663 14.7533H2.48163C2.32064 14.7528 2.15981 14.7637 2.00038 14.7862L2.00013 9.99844ZM2.70513 21.2528C2.17453 21.0991 1.82883 20.7593 1.82438 20.3874C1.81938 19.9635 2.28438 19.362 3.60508 18.9449C3.68694 18.9191 3.7583 18.8676 3.80862 18.798C3.85894 18.7285 3.88555 18.6446 3.88452 18.5587C3.88349 18.4729 3.85487 18.3897 3.80289 18.3213C3.75091 18.253 3.67834 18.2032 3.59588 18.1793C1.78633 17.6548 1.01588 17.0228 1.24088 16.2473C1.37468 15.7856 1.77923 15.5555 2.46658 15.5555C2.93383 15.5555 3.53188 15.6619 4.26428 15.8742C4.34674 15.8981 4.4347 15.8948 4.51516 15.8649C4.59562 15.8349 4.66431 15.7799 4.71108 15.7079C4.75784 15.6359 4.78021 15.5508 4.77486 15.4651C4.76951 15.3794 4.73674 15.2977 4.68138 15.2321C3.78853 14.1734 3.71713 13.4165 3.94808 13.061C4.15073 12.7491 4.62453 12.6469 5.15513 12.8007C6.02108 13.0517 6.64388 15.4462 6.82063 17.1126L6.41853 18.4998C5.37813 19.8134 3.57133 21.5037 2.70538 21.2528H2.70513ZM21.9871 22.2602C21.9312 22.4531 20.9264 22.9569 17.1707 22.749C16.5404 22.714 15.883 22.6613 15.2268 22.5948L15.6174 21.247L14.849 21.0243L14.4196 22.5059C12.7096 22.303 11.0878 22.0165 10.0662 21.7204C8.59478 21.2939 7.77483 20.8613 7.40768 20.3176C7.07268 19.8215 7.06678 19.137 7.38768 18.0289C7.70858 16.9208 8.07988 16.3456 8.62823 16.1055C8.86123 16.0035 9.14268 15.952 9.48583 15.952C10.0279 15.952 10.7238 16.0806 11.6249 16.3417C11.7453 16.3767 11.8734 16.4167 12.007 16.4603L11.007 19.9108L11.7753 20.1335L12.7626 16.7271C14.3359 17.3181 16.4215 18.2914 18.1784 19.2717C18.6056 19.51 18.9867 19.7335 19.327 19.9427L18.9136 21.3694L19.682 21.5922L20.0298 20.3922C21.6946 21.5038 22.0301 22.1114 21.9871 22.2602Z" fill="white"/>
</g>
<defs>
<clipPath id="clip0_1579_6938">
<rect width="24" height="24" fill="white"/>
</clipPath>
</defs>
</svg>
