<svg width="24" height="24" viewBox="0 0 24 24" fill="none" xmlns="http://www.w3.org/2000/svg">
<path d="M22.4392 11.6231C21.7748 10.6709 20.8034 9.97589 19.6878 9.6543C18.6812 9.4066 17.6176 9.56163 16.7235 10.0864C15.8294 10.6111 15.1755 11.4641 14.9009 12.4638C14.2853 12.3401 13.6463 12.4161 13.0769 12.6807C12.5074 12.9453 12.0373 13.3847 11.7348 13.9349L10.8686 12.6273C10.8136 12.5444 10.728 12.4866 10.6305 12.4668C10.533 12.447 10.4316 12.4668 10.3486 12.5217C10.2657 12.5767 10.208 12.6623 10.1882 12.7598C10.1684 12.8574 10.1881 12.9587 10.2431 13.0417L11.4656 14.8867C11.5035 14.9425 11.5558 14.987 11.6168 15.0158C11.6778 15.0446 11.7455 15.0564 11.8127 15.0502C11.8798 15.044 11.9441 15.0198 11.9988 14.9803C12.0535 14.9408 12.0966 14.8874 12.1237 14.8256C12.4863 13.9698 13.0102 13.4392 13.6807 13.2483C15.0978 12.8467 16.7684 14.0133 16.7853 14.0253C16.8665 14.0802 16.9659 14.1011 17.0622 14.0836C17.1586 14.0662 17.2444 14.0117 17.3011 13.9318C17.3578 13.852 17.381 13.7531 17.3658 13.6563C17.3506 13.5596 17.2981 13.4726 17.2196 13.4141C16.7283 13.0825 16.1931 12.8212 15.6296 12.6378C15.8606 11.836 16.3916 11.154 17.1125 10.7337C17.8333 10.3133 18.6883 10.1869 19.4999 10.3807C20.4323 10.6586 21.2454 11.2397 21.8103 12.0318C21.8372 12.0731 21.8719 12.1087 21.9125 12.1366C21.9531 12.1645 21.9988 12.1841 22.0469 12.1943C22.0951 12.2045 22.1448 12.2051 22.1932 12.1961C22.2417 12.1871 22.2878 12.1687 22.3291 12.1419C22.3704 12.115 22.406 12.0803 22.4339 12.0397C22.4618 11.9991 22.4814 11.9534 22.4916 11.9053C22.5018 11.8571 22.5025 11.8074 22.4935 11.7589C22.4845 11.7105 22.466 11.6643 22.4392 11.6231Z" fill="white"/>
<path d="M19.6437 15.9587C19.5995 15.9962 15.1362 19.7121 10.0021 19.2137C9.84317 19.1979 9.68298 19.2268 9.5396 19.2972C9.39621 19.3676 9.27534 19.4766 9.19061 19.612C9.12751 19.7112 9.03873 19.7914 8.9337 19.8442C8.82867 19.897 8.7113 19.9204 8.59406 19.9118C8.47681 19.9033 8.36407 19.8632 8.26779 19.7957C8.17151 19.7283 8.0953 19.636 8.04723 19.5287L7.09661 17.3312C6.60054 16.1927 6.35843 14.9597 6.38711 13.7181C6.42573 12.0092 6.57011 9.62798 7.03586 7.98736C7.40598 6.90361 7.19261 6.14348 8.07573 5.18348C8.11623 5.20861 8.69636 5.09986 8.75223 5.10398C9.31006 5.03346 9.84412 4.83533 10.313 4.52498C10.3517 4.49731 10.3963 4.47897 10.4433 4.47141C10.4902 4.46385 10.5383 4.46727 10.5838 4.4814C10.6292 4.49553 10.6708 4.51998 10.7052 4.55285C10.7396 4.58572 10.7659 4.62611 10.7821 4.67086L11.1459 6.28336C10.9258 6.88579 10.503 7.3929 9.94998 7.71773C9.6025 7.9296 9.31666 8.22888 9.12097 8.58572C8.92528 8.94255 8.82658 9.34447 8.83473 9.75136C8.83381 10.4641 9.03089 11.1631 9.40398 11.7704C9.45615 11.855 9.53982 11.9155 9.63659 11.9385C9.73335 11.9615 9.83529 11.9452 9.91998 11.893C10.0047 11.8408 10.0652 11.7572 10.0882 11.6604C10.1112 11.5636 10.0948 11.4617 10.0426 11.377C9.49211 10.5119 9.28511 8.95786 10.3302 8.36423C10.9842 7.9794 11.497 7.39431 11.7927 6.69548H13.5485C13.6164 8.00798 14.0349 9.28898 14.867 9.28898C14.9495 9.27398 16.4322 9.31036 16.5432 9.27773C18.203 9.02761 18.203 3.39173 16.4371 3.33398H14.8685C14.0277 3.34373 13.6145 4.62511 13.5481 5.94548H11.8385L11.5085 4.48448C11.4604 4.32319 11.3748 4.17558 11.2586 4.05373C11.1425 3.93188 10.9992 3.83925 10.8404 3.78343C10.6816 3.72761 10.5119 3.71018 10.345 3.73257C10.1782 3.75496 10.0191 3.81652 9.88061 3.91223C9.34017 4.23119 8.72872 4.41034 8.10161 4.43348C7.33248 4.43423 6.98036 5.37361 6.75573 5.94548H5.71923C5.65248 4.62998 5.23361 3.34298 4.39848 3.34298C4.38723 3.35198 2.82948 3.33398 2.81823 3.34561C1.03323 3.39286 1.01786 9.49186 2.96148 9.29799H4.44873C5.27223 9.20986 5.64723 7.98473 5.71923 6.69548H6.57048C6.50573 7.06213 6.42035 7.42483 6.31473 7.78186C5.82648 9.49936 5.67723 11.9489 5.63711 13.7012C5.60592 15.0511 5.86901 16.3915 6.40811 17.6294L7.35873 19.8269C7.46259 20.0586 7.62724 20.2578 7.83521 20.4035C8.04319 20.5492 8.28672 20.6358 8.53996 20.6542C8.79321 20.6726 9.04672 20.6222 9.27358 20.5081C9.50044 20.3941 9.69219 20.2207 9.82848 20.0065C15.176 20.4587 19.982 16.7541 20.1279 16.531C20.1999 16.4657 20.2438 16.3749 20.2502 16.2779C20.2567 16.1809 20.2251 16.0851 20.1623 16.0109C20.0995 15.9367 20.0103 15.8897 19.9136 15.88C19.8168 15.8703 19.7201 15.8985 19.6437 15.9587ZM16.4341 4.08398C16.6096 4.12223 17.0176 4.92623 17.018 6.31148C17.018 7.69673 16.6092 8.50036 16.4401 8.53898C16.2646 8.50111 15.857 7.69711 15.8566 6.31148C15.8566 4.92623 16.265 4.12261 16.4341 4.08398ZM14.867 4.08548C14.8726 4.08173 15.509 4.08548 15.5157 4.08398C14.9685 5.51857 14.9685 7.1044 15.5157 8.53898C15.416 8.53261 14.9581 8.55061 14.8707 8.53898C14.6971 8.50673 14.2857 7.67198 14.2876 6.31373C14.2865 4.93486 14.6964 4.12411 14.867 4.08548ZM4.44986 6.69548H4.96623C4.90098 7.84861 4.55448 8.51424 4.40111 8.54799C4.27961 8.52173 3.94736 8.01923 3.84573 6.93023C3.83648 6.83118 3.78826 6.73985 3.71168 6.67635C3.63509 6.61284 3.53642 6.58236 3.43736 6.59161C3.3383 6.60086 3.24697 6.64908 3.18347 6.72567C3.11996 6.80225 3.08948 6.90093 3.09873 6.99998C3.138 7.5337 3.26679 8.05701 3.47973 8.54799C3.38373 8.54048 2.91761 8.55998 2.83248 8.54799C2.65811 8.50861 2.24973 7.70273 2.24973 6.32123C2.24973 4.93973 2.65811 4.13386 2.82948 4.09448C2.83473 4.09073 3.47711 4.09448 3.48348 4.09336C3.29363 4.51263 3.17185 4.95949 3.12273 5.41711C3.11643 5.46596 3.11981 5.51558 3.13268 5.56312C3.14555 5.61067 3.16766 5.65521 3.19775 5.69421C3.22783 5.73321 3.26531 5.76591 3.30803 5.79042C3.35075 5.81494 3.39788 5.83081 3.44673 5.83711C3.54539 5.84984 3.64507 5.82286 3.72383 5.76209C3.76284 5.73201 3.79553 5.69454 3.82005 5.65181C3.84456 5.60909 3.86043 5.56196 3.86673 5.51311C3.99873 4.50023 4.30361 4.11323 4.39736 4.09336C4.55561 4.12936 4.90136 4.79461 4.96623 5.94586H4.44986C4.3504 5.94586 4.25502 5.98537 4.18469 6.05569C4.11437 6.12602 4.07486 6.2214 4.07486 6.32086C4.07486 6.42032 4.11437 6.5157 4.18469 6.58602C4.25502 6.65635 4.3504 6.69548 4.44986 6.69548Z" fill="white"/>
<path d="M16.8125 6.40984V6.21484C16.8125 6.11539 16.773 6.02 16.7027 5.94968C16.6323 5.87935 16.537 5.83984 16.4375 5.83984C16.338 5.83984 16.2427 5.87935 16.1723 5.94968C16.102 6.02 16.0625 6.11539 16.0625 6.21484V6.40984C16.0625 6.5093 16.102 6.60468 16.1723 6.67501C16.2427 6.74534 16.338 6.78484 16.4375 6.78484C16.537 6.78484 16.6323 6.74534 16.7027 6.67501C16.773 6.60468 16.8125 6.5093 16.8125 6.40984Z" fill="white"/>
</svg>
